<svg xmlns="http://www.w3.org/2000/svg" version="1.1" xmlns:xlink="http://www.w3.org/1999/xlink" xmlns:svgjs="http://svgjs.dev/svgjs" viewBox="0 0 7.334005142889288 7.208087680989354"><g transform="matrix(1,0,0,1,0.6058932764006983,5.177741904588654)"><rect width="7.334005142889288" height="7.334005142889288" x="-0.6058932764006983" y="-5.240700635538621" fill="#212245"></rect><g><path d=" M 0.15860925 1.3709092500000002 Q 0.05859450000000001 1.3173660000000003 -0.0020205 1.2224025000000003 L 0.060615 1.1537055000000003 Q 0.11920950000000001 1.240587 0.19901925 1.2860482500000001 Q 0.27882900000000005 1.3315095000000001 0.3737925 1.3315095000000001 Q 0.5152275000000001 1.3315095000000001 0.5849347500000001 1.2496792500000002 Q 0.6546420000000001 1.1678490000000001 0.6546420000000001 0.9981270000000002 L 0.6546420000000001 0.09294300000000022 L 0.133353 0.09294300000000022 L 0.133353 0 L 0.7576875000000001 0 L 0.7576875000000001 0.9981270000000002 Q 0.7576875000000001 1.2102795000000002 0.6607035 1.3173660000000003 Q 0.5637195 1.4244525000000001 0.3737925 1.4244525000000001 Q 0.258624 1.4244525000000001 0.15860925 1.3709092500000002 M 2.3034262346191405 1.0223730000000002 L 2.0064127346191407 1.0223730000000002 L 2.0064127346191407 1.4143500000000002 L 1.9053877346191406 1.4143500000000002 L 1.9053877346191406 1.0223730000000002 L 1.0992082346191405 1.0223730000000002 L 1.0992082346191405 0.9476145000000002 L 1.8669982346191405 0 L 1.9821667346191405 0 L 1.2285202346191404 0.9314505000000002 L 1.9074082346191406 0.9314505000000002 L 1.9074082346191406 0.5859450000000002 L 2.0064127346191407 0.5859450000000002 L 2.0064127346191407 0.9314505000000002 L 2.3034262346191405 0.9314505000000002 L 2.3034262346191405 1.0223730000000002 M 3.475299462890625 1.0163115000000003 L 2.654976462890625 1.0163115000000003 L 2.475151962890625 1.4143500000000002 L 2.3640244628906246 1.4143500000000002 L 3.0146254628906246 0 L 3.1176709628906245 0 L 3.768271962890625 1.4143500000000002 L 3.657144462890625 1.4143500000000002 L 3.475299462890625 1.0163115000000003 M 3.436909962890625 0.9294300000000002 L 3.065137962890625 0.11314800000000003 L 2.6953864628906246 0.9294300000000002 L 3.436909962890625 0.9294300000000002 M 4.245198754394531 0.09294300000000022 L 3.736032754394531 0.09294300000000022 L 3.736032754394531 0 L 4.857410254394531 0 L 4.857410254394531 0.09294300000000022 L 4.348244254394531 0.09294300000000022 L 4.348244254394531 1.4143500000000002 L 4.245198754394531 1.4143500000000002 L 4.245198754394531 0.09294300000000022 M 5.958499882324219 1.4143500000000002 L 5.471559382324219 0.7597080000000002 L 4.986639382324219 1.4143500000000002 L 4.865409382324218 1.4143500000000002 L 5.408923882324219 0.6849495000000002 L 4.903798882324218 0 L 5.025028882324219 0 L 5.4756003823242185 0.6081705000000002 L 5.926171882324219 0 L 6.041340382324218 0 L 5.536215382324219 0.6829290000000001 L 6.0797298823242185 1.4143500000000002 L 5.958499882324219 1.4143500000000002" fill="#ffffff" fill-rule="nonzero"></path></g><g></g><g clip-path="url(#SvgjsClipPath1002)"><g clip-path="url(#SvgjsClipPath1000ca023d0a-84f7-4db1-9498-cbeace092378)"><path d=" M 3.2050774946815888 -4.571848628187956 L 5.235811045480926 -3.6519240298643605 L 5.235811045480926 -1.2049245983235957 L 3.2050774946815888 -0.28500000000000014 L 3.2050774946815888 -2.8750477065800837 L 3.6898777579981235 -2.6551857275807444 L 3.6898777579981235 -1.568294814661416 L 4.266670481147018 -1.830013362884479 L 4.266670481147018 -3.027295227602639 L 3.2050774946815888 -3.5079558302267175 L 3.2050774946815888 -4.571848628187956 Z" fill="#64c6c4" transform="matrix(1,0,0,1,0,0)" fill-rule="evenodd"></path></g><g clip-path="url(#SvgjsClipPath1000ca023d0a-84f7-4db1-9498-cbeace092378)"><path d=" M 2.916681133107141 -0.28500000000000014 L 0.8864075446069659 -1.2049245983235957 L 0.8864075446069659 -3.6519240298643605 L 2.916681133107141 -4.571848628187956 L 2.916681133107141 -1.9822608839070344 L 2.432340832089768 -2.201662900607212 L 2.432340832089768 -3.2885538135265397 L 1.8555481089408739 -3.027295227602639 L 1.8555481089408739 -1.830013362884479 L 2.916681133107141 -1.348892797961239 L 2.916681133107141 -0.28500000000000014 Z" fill="#a4cb6a" transform="matrix(1,0,0,1,0,0)" fill-rule="evenodd"></path></g></g></g><defs><clipPath id="SvgjsClipPath1002"><path d=" M 0.8864075446069659 -4.571848628187956 h 4.34940350087396 v 4.286848628187956 h -4.34940350087396 Z"></path></clipPath><clipPath id="SvgjsClipPath1000ca023d0a-84f7-4db1-9498-cbeace092378"><path d=" M 0.8864075446069659 -4.571848628187956 L 5.235811045480926 -4.571848628187956 L 5.235811045480926 -0.28500000000000014 L 0.8864075446069659 -0.28500000000000014 Z"></path></clipPath></defs></svg>